<svg width="21" height="21" viewBox="0 0 21 21" fill="none" xmlns="http://www.w3.org/2000/svg">
<path d="M4.55002 9.06361e-06H16.45C17.0479 -0.00118538 17.6401 0.115689 18.1927 0.343925C18.7452 0.572162 19.2473 0.907267 19.6701 1.33001C20.0928 1.75276 20.4279 2.25482 20.6561 2.80739C20.8844 3.35997 21.0013 3.95217 21.0001 4.55002V16.45C21.0013 17.0479 20.8844 17.6401 20.6561 18.1927C20.4279 18.7452 20.0928 19.2473 19.6701 19.6701C19.2473 20.0928 18.7452 20.4279 18.1927 20.6561C17.6401 20.8844 17.0479 21.0013 16.45 21.0001H4.55002C3.95217 21.0013 3.35997 20.8844 2.80739 20.6561C2.25482 20.4279 1.75276 20.0928 1.33001 19.6701C0.907268 19.2473 0.572162 18.7452 0.343926 18.1927C0.115689 17.6401 -0.00118515 17.0479 9.06011e-06 16.45V4.55002C0.000565552 3.34345 0.480119 2.18646 1.33329 1.33329C2.18646 0.480119 3.34345 0.000565556 4.55002 9.06361e-06Z" fill="url(#paint0_linear_28_305)"/>
<path fill-rule="evenodd" clip-rule="evenodd" d="M14.3325 4.72485C16.0475 4.72485 16.94 5.37235 17.4825 5.80986C17.6034 5.90611 17.7009 6.02859 17.7676 6.16804C17.8343 6.3075 17.8685 6.46028 17.8675 6.61486V15.1374C17.8628 15.2015 17.8383 15.2627 17.7975 15.3124C17.7751 15.336 17.7479 15.3545 17.7177 15.3666C17.6874 15.3787 17.655 15.3841 17.6225 15.3824C17.5926 15.3839 17.5627 15.3784 17.5353 15.3663C17.5079 15.3541 17.4838 15.3356 17.465 15.3124C16.9225 14.8574 15.855 14.2624 14.28 14.2624C11.655 14.2624 10.8849 16.7124 10.8849 16.7124V7.43736C10.886 6.96136 11.0462 6.49939 11.34 6.12486C11.83 5.47736 12.7225 4.72485 14.3325 4.72485ZM6.87744 4.72485C8.48744 4.72485 9.37995 5.47736 9.88745 6.12486C10.1812 6.49939 10.3414 6.96136 10.3424 7.43736V16.7124C10.3424 16.7124 9.57245 14.2624 6.94744 14.2624C5.37244 14.2624 4.30494 14.8574 3.76244 15.3124C3.71344 15.3429 3.66043 15.3665 3.60493 15.3824C3.57255 15.3832 3.54033 15.3774 3.51025 15.3653C3.48017 15.3533 3.45284 15.3353 3.42993 15.3124C3.40702 15.2895 3.38901 15.2621 3.37697 15.2321C3.36494 15.202 3.35914 15.1698 3.35993 15.1374V6.61486C3.36081 6.46059 3.39577 6.30843 3.46233 6.16926C3.52889 6.0301 3.62539 5.90736 3.74494 5.80986C4.26994 5.37235 5.16244 4.72485 6.87744 4.72485Z" fill="white"/>
<defs>
<linearGradient id="paint0_linear_28_305" x1="10.5" y1="9.06361e-06" x2="10.5" y2="21.0001" gradientUnits="userSpaceOnUse">
<stop stop-color="#F77B6F"/>
<stop offset="1" stop-color="#F65D4E"/>
</linearGradient>
</defs>
</svg>
