<svg width="95" height="28" viewBox="0 0 95 28" fill="none" xmlns="http://www.w3.org/2000/svg">
<path d="M94.8751 24.8745C94.8751 26.3823 93.6537 27.6037 92.143 27.6037H2.73562C1.22565 27.6037 0 26.3823 0 24.8745V3.10996C0 1.60284 1.22565 0.377197 2.73562 0.377197H92.1423C93.6537 0.377197 94.8744 1.60284 94.8744 3.10996L94.8751 24.8745Z" fill="black"/>
<path d="M20.8344 13.8408C20.8137 11.5442 22.7149 10.4268 22.8019 10.3748C21.7251 8.80498 20.0563 8.59049 19.4698 8.57339C18.0682 8.42588 16.7085 9.4121 15.9945 9.4121C15.2663 9.4121 14.1667 8.58764 12.9817 8.61187C11.4568 8.63538 10.0302 9.51828 9.24777 10.8893C7.63305 13.6848 8.83732 17.7928 10.3843 20.0524C11.1582 21.1591 12.0625 22.3947 13.2461 22.3512C14.404 22.3035 14.8366 21.613 16.234 21.613C17.6185 21.613 18.0247 22.3512 19.2318 22.3234C20.4746 22.3035 21.257 21.2118 22.0038 20.0952C22.8981 18.8268 23.2572 17.5776 23.2715 17.5135C23.2422 17.5035 20.8579 16.5935 20.8344 13.8408Z" fill="white"/>
<path d="M18.5543 7.08686C19.1771 6.308 19.6032 5.24839 19.4849 4.1731C18.5835 4.213 17.4562 4.79661 16.807 5.55836C16.2327 6.22962 15.7196 7.32985 15.8521 8.36452C16.8647 8.44006 17.9044 7.8536 18.5543 7.08686Z" fill="white"/>
<path d="M37.5923 22.1923H35.974L35.0876 19.4068H32.0064L31.162 22.1923H29.5864L32.6391 12.7092H34.5246L37.5923 22.1923ZM34.8204 18.2382L34.0187 15.7619C33.9339 15.509 33.775 14.9133 33.5406 13.9755H33.5121C33.4187 14.3788 33.2684 14.9745 33.0617 15.7619L32.2743 18.2382H34.8204Z" fill="white"/>
<path d="M45.4429 18.6891C45.4429 19.8521 45.1287 20.7713 44.5002 21.4461C43.9372 22.0469 43.2382 22.3468 42.4037 22.3468C41.503 22.3468 40.856 22.0233 40.4619 21.3763H40.4334V24.9784H38.9142V17.6053C38.9142 16.8742 38.895 16.1238 38.8579 15.3542H40.194L40.2788 16.4381H40.3073C40.814 15.6215 41.5828 15.2139 42.6147 15.2139C43.4213 15.2139 44.0947 15.5324 44.6334 16.1702C45.1736 16.8086 45.4429 17.6481 45.4429 18.6891ZM43.8952 18.7447C43.8952 18.0792 43.7455 17.5305 43.4448 17.0987C43.1163 16.6483 42.6752 16.4231 42.1223 16.4231C41.7474 16.4231 41.4068 16.5485 41.1026 16.7958C40.7976 17.0452 40.598 17.3709 40.5047 17.7742C40.4577 17.9623 40.4341 18.1162 40.4341 18.2374V19.3775C40.4341 19.8749 40.5866 20.2946 40.8916 20.6374C41.1966 20.9801 41.5928 21.1511 42.0802 21.1511C42.6524 21.1511 43.0978 20.9302 43.4163 20.4899C43.7356 20.0488 43.8952 19.4673 43.8952 18.7447Z" fill="white"/>
<path d="M53.3079 18.6891C53.3079 19.8521 52.9937 20.7713 52.3645 21.4461C51.8022 22.0469 51.1032 22.3468 50.2687 22.3468C49.368 22.3468 48.721 22.0233 48.3277 21.3763H48.2992V24.9784H46.7799V17.6053C46.7799 16.8742 46.7607 16.1238 46.7236 15.3542H48.0597L48.1445 16.4381H48.173C48.679 15.6215 49.4478 15.2139 50.4804 15.2139C51.2863 15.2139 51.9597 15.5324 52.4999 16.1702C53.0379 16.8086 53.3079 17.6481 53.3079 18.6891ZM51.7602 18.7447C51.7602 18.0792 51.6098 17.5305 51.3091 17.0987C50.9806 16.6483 50.541 16.4231 49.9873 16.4231C49.6117 16.4231 49.2718 16.5485 48.9669 16.7958C48.6619 17.0452 48.4631 17.3709 48.3697 17.7742C48.3234 17.9623 48.2992 18.1162 48.2992 18.2374V19.3775C48.2992 19.8749 48.4517 20.2946 48.7552 20.6374C49.0602 20.9794 49.4564 21.1511 49.9452 21.1511C50.5174 21.1511 50.9628 20.9302 51.2813 20.4899C51.6006 20.0488 51.7602 19.4673 51.7602 18.7447Z" fill="white"/>
<path d="M62.1009 19.533C62.1009 20.3396 61.8208 20.9959 61.2586 21.5026C60.6408 22.0563 59.7807 22.3327 58.6755 22.3327C57.6551 22.3327 56.837 22.1361 56.2178 21.742L56.5698 20.4757C57.2368 20.8791 57.9686 21.0814 58.766 21.0814C59.3382 21.0814 59.7836 20.9517 60.1035 20.6938C60.422 20.4358 60.5809 20.0895 60.5809 19.6577C60.5809 19.2729 60.4498 18.9487 60.1869 18.6857C59.9254 18.4228 59.4885 18.1784 58.8786 17.9525C57.2182 17.3332 56.3888 16.4261 56.3888 15.2332C56.3888 14.4537 56.6795 13.8145 57.2617 13.3171C57.8418 12.819 58.6156 12.5703 59.5833 12.5703C60.4463 12.5703 61.1631 12.7207 61.7353 13.0207L61.3555 14.2591C60.8211 13.9684 60.2168 13.823 59.5406 13.823C59.0061 13.823 58.5885 13.9549 58.2893 14.2171C58.0363 14.4515 57.9095 14.7373 57.9095 15.0758C57.9095 15.4506 58.0541 15.7606 58.3448 16.0043C58.5978 16.2294 59.0574 16.4731 59.7244 16.7361C60.5403 17.0646 61.1396 17.4487 61.5251 17.8891C61.9092 18.328 62.1009 18.8774 62.1009 19.533Z" fill="white"/>
<path d="M67.1238 16.4948H65.4492V19.8147C65.4492 20.6592 65.7443 21.081 66.3357 21.081C66.6072 21.081 66.8324 21.0575 67.0105 21.0105L67.0526 22.1641C66.7533 22.276 66.3592 22.3323 65.8711 22.3323C65.2711 22.3323 64.8022 22.1492 64.4637 21.7836C64.1267 21.4173 63.9571 20.8031 63.9571 19.9402V16.4934H62.9595V15.3532H63.9571V14.1012L65.4492 13.6509V15.3532H67.1238V16.4948Z" fill="white"/>
<path d="M74.6795 18.7172C74.6795 19.7683 74.3788 20.6312 73.7788 21.306C73.1496 22.0008 72.3145 22.3471 71.2734 22.3471C70.27 22.3471 69.4712 22.0143 68.8755 21.3488C68.2798 20.6832 67.9819 19.8431 67.9819 18.8305C67.9819 17.7709 68.2883 16.903 68.9033 16.2281C69.5168 15.5526 70.3449 15.2148 71.386 15.2148C72.3893 15.2148 73.1966 15.5476 73.8059 16.2139C74.3888 16.8602 74.6795 17.6946 74.6795 18.7172ZM73.1033 18.7664C73.1033 18.1357 72.9686 17.5949 72.6957 17.1438C72.3772 16.598 71.9218 16.3258 71.3318 16.3258C70.7211 16.3258 70.2572 16.5987 69.9387 17.1438C69.6658 17.5956 69.5311 18.145 69.5311 18.7949C69.5311 19.4255 69.6658 19.9664 69.9387 20.4167C70.2672 20.9626 70.7261 21.2348 71.3183 21.2348C71.8983 21.2348 72.3536 20.9569 72.6821 20.4025C72.9622 19.9429 73.1033 19.3963 73.1033 18.7664Z" fill="white"/>
<path d="M79.6179 16.6903C79.4675 16.6626 79.3072 16.6483 79.139 16.6483C78.6046 16.6483 78.1913 16.85 77.9006 17.254C77.6476 17.6103 77.5207 18.0606 77.5207 18.6043V22.1922H76.0022L76.0165 17.5077C76.0165 16.7196 75.9972 16.002 75.9595 15.355H77.2827L77.3383 16.6633H77.3804C77.5407 16.2136 77.7937 15.8516 78.14 15.5801C78.4785 15.3357 78.844 15.2139 79.2381 15.2139C79.3785 15.2139 79.5053 15.2238 79.6179 15.2417V16.6903Z" fill="white"/>
<path d="M86.4124 18.4498C86.4124 18.7221 86.3946 18.9515 86.3568 19.1389H81.7991C81.8169 19.8145 82.0371 20.3311 82.4604 20.6874C82.8445 21.0059 83.3411 21.1655 83.9511 21.1655C84.6259 21.1655 85.2416 21.0579 85.7953 20.842L86.0333 21.8966C85.3863 22.1788 84.6224 22.3192 83.7409 22.3192C82.6806 22.3192 81.8483 22.0071 81.2426 21.3836C80.6383 20.7601 80.3354 19.9228 80.3354 18.8724C80.3354 17.8413 80.6169 16.9826 81.1806 16.2978C81.7706 15.5667 82.568 15.2012 83.5713 15.2012C84.5568 15.2012 85.3029 15.5667 85.8095 16.2978C86.2107 16.8786 86.4124 17.5969 86.4124 18.4498ZM84.9637 18.0558C84.9737 17.6054 84.8746 17.2164 84.6687 16.8879C84.4057 16.4653 84.0017 16.2544 83.458 16.2544C82.9613 16.2544 82.5573 16.4603 82.2487 16.8736C81.9958 17.2021 81.8454 17.5962 81.7991 18.0551H84.9637V18.0558Z" fill="white"/>
<path d="M34.3182 6.87549C34.3182 7.7142 34.0667 8.34555 33.5643 8.76954C33.099 9.16075 32.4377 9.35671 31.5812 9.35671C31.1565 9.35671 30.793 9.33819 30.4888 9.30113V4.71849C30.8857 4.65436 31.3132 4.62158 31.775 4.62158C32.5909 4.62158 33.2059 4.79902 33.6206 5.15388C34.0852 5.55507 34.3182 6.1287 34.3182 6.87549ZM33.5308 6.89616C33.5308 6.35245 33.3869 5.93559 33.099 5.64485C32.8111 5.35483 32.3907 5.20946 31.837 5.20946C31.6018 5.20946 31.4016 5.22514 31.2356 5.25792V8.74175C31.3275 8.756 31.4957 8.76242 31.7401 8.76242C32.3116 8.76242 32.7527 8.60351 33.0633 8.2857C33.374 7.96788 33.5308 7.5047 33.5308 6.89616Z" fill="white"/>
<path d="M38.4931 7.60788C38.4931 8.1245 38.3456 8.54778 38.0506 8.87984C37.7414 9.22117 37.3316 9.39148 36.82 9.39148C36.3269 9.39148 35.9342 9.2283 35.6414 8.90051C35.3492 8.57343 35.2031 8.16084 35.2031 7.66346C35.2031 7.14327 35.3535 6.71643 35.6556 6.38508C35.9578 6.05373 36.3639 5.8877 36.8756 5.8877C37.3687 5.8877 37.7649 6.05088 38.0649 6.37795C38.3499 6.69577 38.4931 7.10622 38.4931 7.60788ZM37.7186 7.6321C37.7186 7.32213 37.6516 7.05634 37.5183 6.83472C37.3615 6.56679 37.1385 6.43282 36.8485 6.43282C36.5485 6.43282 36.3205 6.56679 36.1637 6.83472C36.0297 7.05634 35.9635 7.32641 35.9635 7.64564C35.9635 7.95562 36.0304 8.22141 36.1637 8.44303C36.3254 8.71096 36.5506 8.84493 36.8414 8.84493C37.1264 8.84493 37.3501 8.70882 37.5112 8.4359C37.6494 8.21001 37.7186 7.94208 37.7186 7.6321Z" fill="white"/>
<path d="M44.0916 5.9563L43.0405 9.31543H42.3564L41.921 7.85676C41.8106 7.49263 41.7208 7.13064 41.651 6.7715H41.6374C41.5726 7.14062 41.4828 7.5019 41.3674 7.85676L40.9049 9.31543H40.213L39.2246 5.9563H39.9921L40.3719 7.5532C40.4638 7.93087 40.5393 8.29073 40.5999 8.63134H40.6134C40.669 8.35059 40.7609 7.99287 40.8906 7.56033L41.3674 5.95701H41.9759L42.4327 7.52612C42.5431 7.90878 42.6329 8.27719 42.702 8.63206H42.7227C42.7733 8.28645 42.8495 7.91805 42.9507 7.52612L43.3583 5.95701H44.0916V5.9563Z" fill="white"/>
<path d="M47.9625 9.31517H47.2157V7.39119C47.2157 6.79832 46.9905 6.50188 46.5387 6.50188C46.3171 6.50188 46.1383 6.58312 45.9993 6.7463C45.8618 6.90948 45.7919 7.10188 45.7919 7.32207V9.31446H45.0451V6.9159C45.0451 6.62089 45.0359 6.30094 45.0181 5.95462H45.6744L45.7093 6.47979H45.7299C45.8169 6.31661 45.9466 6.18193 46.1169 6.07433C46.3192 5.94892 46.5458 5.8855 46.7938 5.8855C47.1074 5.8855 47.3682 5.98669 47.5755 6.18977C47.8335 6.43846 47.9625 6.80972 47.9625 7.30283V9.31517Z" fill="white"/>
<path d="M50.022 9.31525H49.2759V4.41479H50.022V9.31525Z" fill="white"/>
<path d="M54.4189 7.60788C54.4189 8.1245 54.2714 8.54778 53.9764 8.87984C53.6671 9.22117 53.2567 9.39148 52.7458 9.39148C52.2519 9.39148 51.8593 9.2283 51.5671 8.90051C51.275 8.57343 51.1289 8.16084 51.1289 7.66346C51.1289 7.14327 51.2793 6.71643 51.5814 6.38508C51.8835 6.05373 52.2897 5.8877 52.8006 5.8877C53.2945 5.8877 53.6899 6.05088 53.9906 6.37795C54.2757 6.69577 54.4189 7.10622 54.4189 7.60788ZM53.6436 7.6321C53.6436 7.32213 53.5766 7.05634 53.4434 6.83472C53.2873 6.56679 53.0636 6.43282 52.7743 6.43282C52.4736 6.43282 52.2455 6.56679 52.0895 6.83472C51.9555 7.05634 51.8892 7.32641 51.8892 7.64564C51.8892 7.95562 51.9562 8.22141 52.0895 8.44303C52.2512 8.71096 52.4764 8.84493 52.7671 8.84493C53.0522 8.84493 53.2752 8.70882 53.4363 8.4359C53.5752 8.21001 53.6436 7.94208 53.6436 7.6321Z" fill="white"/>
<path d="M58.0331 9.31523H57.3626L57.307 8.9283H57.2863C57.0569 9.23685 56.7298 9.39148 56.3051 9.39148C55.988 9.39148 55.7314 9.28958 55.5383 9.0872C55.363 8.90336 55.2754 8.67462 55.2754 8.40312C55.2754 7.99267 55.4464 7.67985 55.7906 7.46322C56.1341 7.2466 56.6172 7.14042 57.2393 7.14541V7.0827C57.2393 6.64019 57.007 6.41928 56.5417 6.41928C56.2103 6.41928 55.9181 6.50266 55.6659 6.66798L55.5141 6.17772C55.8262 5.98461 56.2117 5.8877 56.6664 5.8877C57.5443 5.8877 57.9846 6.35088 57.9846 7.27724V8.51429C57.9846 8.84991 58.001 9.11713 58.0331 9.31523ZM57.2578 8.16084V7.64279C56.4341 7.62854 56.0222 7.85443 56.0222 8.31975C56.0222 8.49505 56.0692 8.62616 56.1654 8.71381C56.2616 8.80146 56.3842 8.84493 56.5303 8.84493C56.6941 8.84493 56.8474 8.79291 56.987 8.68958C57.1274 8.58554 57.2136 8.45372 57.2457 8.29196C57.2535 8.25562 57.2578 8.21144 57.2578 8.16084Z" fill="white"/>
<path d="M62.2765 9.31525H61.6138L61.5788 8.77582H61.5582C61.3465 9.18627 60.986 9.39149 60.4793 9.39149C60.0746 9.39149 59.7375 9.23259 59.4703 8.91477C59.2031 8.59696 59.0698 8.18437 59.0698 7.67772C59.0698 7.13402 59.2145 6.69364 59.5052 6.3573C59.7867 6.04377 60.1316 5.887 60.542 5.887C60.9931 5.887 61.3088 6.03878 61.4883 6.34305H61.5026V4.41479H62.2501V8.41026C62.2501 8.73734 62.2586 9.03876 62.2765 9.31525ZM61.5026 7.89863V7.33853C61.5026 7.24162 61.4955 7.16324 61.4819 7.10338C61.4399 6.92381 61.3494 6.77274 61.2119 6.65089C61.0729 6.52904 60.9054 6.46775 60.7123 6.46775C60.4337 6.46775 60.2157 6.5782 60.0553 6.79982C59.8964 7.02143 59.8159 7.30433 59.8159 7.64993C59.8159 7.982 59.8921 8.25136 60.0454 8.45872C60.2071 8.67962 60.4252 8.79007 60.6981 8.79007C60.9432 8.79007 61.1392 8.69815 61.2881 8.51359C61.432 8.34328 61.5026 8.13805 61.5026 7.89863Z" fill="white"/>
<path d="M68.6635 7.60788C68.6635 8.1245 68.516 8.54778 68.221 8.87984C67.9118 9.22117 67.5027 9.39148 66.9904 9.39148C66.498 9.39148 66.1054 9.2283 65.8118 8.90051C65.5196 8.57343 65.3735 8.16084 65.3735 7.66346C65.3735 7.14327 65.5239 6.71643 65.826 6.38508C66.1282 6.05373 66.5343 5.8877 67.0467 5.8877C67.5391 5.8877 67.936 6.05088 68.2353 6.37795C68.5203 6.69577 68.6635 7.10622 68.6635 7.60788ZM67.8897 7.6321C67.8897 7.32213 67.8227 7.05634 67.6894 6.83472C67.532 6.56679 67.3096 6.43282 67.0189 6.43282C66.7196 6.43282 66.4916 6.56679 66.3341 6.83472C66.2001 7.05634 66.1339 7.32641 66.1339 7.64564C66.1339 7.95562 66.2008 8.22141 66.3341 8.44303C66.4959 8.71096 66.721 8.84493 67.0118 8.84493C67.2968 8.84493 67.5213 8.70882 67.6823 8.4359C67.8198 8.21001 67.8897 7.94208 67.8897 7.6321Z" fill="white"/>
<path d="M72.679 9.31517H71.933V7.39119C71.933 6.79832 71.7078 6.50188 71.2553 6.50188C71.0337 6.50188 70.8548 6.58312 70.7166 6.7463C70.5783 6.90948 70.5092 7.10188 70.5092 7.32207V9.31446H69.7617V6.9159C69.7617 6.62089 69.7532 6.30094 69.7354 5.95462H70.3909L70.4258 6.47979H70.4465C70.5342 6.31661 70.6639 6.18193 70.8334 6.07433C71.0365 5.94892 71.2624 5.8855 71.5111 5.8855C71.8239 5.8855 72.0847 5.98669 72.2921 6.18977C72.5508 6.43846 72.679 6.80972 72.679 7.30283V9.31517Z" fill="white"/>
<path d="M77.7045 6.51558H76.8822V8.1474C76.8822 8.56213 77.0283 8.76949 77.3176 8.76949C77.4516 8.76949 77.5627 8.75809 77.6504 8.73458L77.6696 9.30108C77.5221 9.35666 77.3283 9.38445 77.0896 9.38445C76.7945 9.38445 76.5651 9.29467 76.3991 9.1151C76.2323 8.93552 76.1497 8.63339 76.1497 8.2094V6.51558H75.6587V5.9562H76.1497V5.34053L76.8815 5.11963V5.95549H77.7038V6.51558H77.7045Z" fill="white"/>
<path d="M81.658 9.31525H80.9105V7.40552C80.9105 6.80338 80.6854 6.50196 80.2343 6.50196C79.888 6.50196 79.6514 6.67654 79.5217 7.02571C79.4996 7.0991 79.4868 7.18889 79.4868 7.29435V9.31453H78.7407V4.41479H79.4868V6.43925H79.5011C79.7362 6.07084 80.0733 5.887 80.5101 5.887C80.8193 5.887 81.0752 5.98818 81.2782 6.19127C81.5312 6.44424 81.658 6.82048 81.658 7.31787V9.31525Z" fill="white"/>
<path d="M85.736 7.47707C85.736 7.61104 85.726 7.72363 85.7082 7.81555H83.4685C83.4785 8.14761 83.5854 8.40058 83.7927 8.57588C83.9823 8.73265 84.2267 8.81103 84.526 8.81103C84.8573 8.81103 85.1595 8.7583 85.4317 8.65212L85.5485 9.17089C85.23 9.30913 84.8552 9.37825 84.4212 9.37825C83.9011 9.37825 83.4913 9.22504 83.1949 8.91863C82.897 8.61222 82.7495 8.20106 82.7495 7.68515C82.7495 7.1785 82.887 6.75665 83.1642 6.42031C83.4535 6.06116 83.8448 5.88159 84.3386 5.88159C84.8217 5.88159 85.1887 6.06116 85.4367 6.42031C85.6369 6.70534 85.736 7.05807 85.736 7.47707ZM85.0234 7.28396C85.0291 7.06235 84.9799 6.87137 84.8787 6.71033C84.749 6.50297 84.5516 6.39893 84.2844 6.39893C84.0407 6.39893 83.8419 6.50012 83.6901 6.7032C83.5661 6.86496 83.4927 7.05807 83.4685 7.28396H85.0234Z" fill="white"/>
</svg>
