<svg width="366" height="22" viewBox="0 0 366 22" fill="none" xmlns="http://www.w3.org/2000/svg">
<path d="M0 2.70006C0 1.20886 1.20886 0 2.70006 0H29.7007C31.1919 0 32.4007 1.20886 32.4007 2.70006V18.9004C32.4007 20.3916 31.1919 21.6005 29.7007 21.6005H2.70006C1.20886 21.6005 0 20.3916 0 18.9004V2.70006Z" fill="#2A2A6C"/>
<path fill-rule="evenodd" clip-rule="evenodd" d="M20.4867 11.9277C20.4908 10.8984 19.642 10.4539 18.9832 10.1089C18.5662 9.89052 18.2254 9.71203 18.2254 9.45036C18.2254 9.2276 18.4414 8.99135 18.9004 8.9306C19.4467 8.87655 19.9974 8.97222 20.4934 9.20735L20.7769 7.85732C20.2934 7.67599 19.7813 7.58227 19.2649 7.58057C17.6719 7.58057 16.5648 8.43109 16.5648 9.64611C16.5648 10.5439 17.3681 11.0434 17.9756 11.3404C18.5831 11.6374 18.8194 11.8467 18.8126 12.1167C18.8126 12.5352 18.3131 12.7242 17.8474 12.7309C17.2728 12.7383 16.7059 12.5989 16.2003 12.3259L15.9101 13.676C16.4821 13.8993 17.0915 14.0115 17.7056 14.0067C19.3999 14.0067 20.5137 13.1697 20.5204 11.8737L20.4867 11.9277ZM16.1058 7.68857L14.7558 13.9325H13.1358L14.4858 7.68857H16.1058ZM22.8965 11.7387L23.747 9.39636L24.2398 11.7387H22.8965ZM26.1973 13.9527H24.6988L24.503 13.0212H22.4712L22.1405 13.9527H20.4394L22.8627 8.16783C22.9744 7.89259 23.2407 7.71154 23.5377 7.70882H24.8878L26.1973 13.9527ZM11.212 13.9122L13.831 7.66832H12.076L10.3952 11.9142L9.72018 8.30283C9.66043 7.93586 9.34272 7.66681 8.97092 7.66832H6.22361L6.18311 7.85057C6.73415 7.95839 7.26938 8.13529 7.77614 8.37708C7.99198 8.47856 8.13825 8.68642 8.1609 8.92385L9.45018 13.9122H11.212Z" fill="white"/>
<path d="M83.3999 2.70006C83.3999 1.20886 84.6088 0 86.1 0H113.101C114.592 0 115.801 1.20886 115.801 2.70006V18.9004C115.801 20.3916 114.592 21.6005 113.101 21.6005H86.1C84.6088 21.6005 83.3999 20.3916 83.3999 18.9004V2.70006Z" fill="#F2F0EC"/>
<g opacity="0.01">
<path d="M86.5386 2.15967H112.668V19.4401H86.5386V2.15967Z" fill="white"/>
</g>
<path d="M96.1577 5.17041H103.05V16.4297H96.1577V5.17041Z" fill="#F26122"/>
<path d="M96.9003 10.8002C96.8889 8.60879 97.8843 6.53347 99.6004 5.17058C96.6642 2.86155 92.4465 3.19685 89.9121 5.94078C87.3776 8.6847 87.3776 12.9157 89.9121 15.6596C92.4465 18.4036 96.6642 18.7389 99.6004 16.4298C97.8843 15.0669 96.8889 12.9916 96.9003 10.8002Z" fill="#EA1D25"/>
<path fill-rule="evenodd" clip-rule="evenodd" d="M110.495 15.0053V15.2348H110.454V15.0053H110.36V14.958H110.596V15.0053H110.495ZM110.954 14.958V15.2348H110.907V15.0255L110.832 15.2078H110.778L110.697 15.0255V15.2348H110.65V14.958H110.718L110.805 15.1538L110.886 14.958H110.954Z" fill="#F69E1E"/>
<path d="M111.183 10.7999C111.182 13.5401 109.617 16.039 107.152 17.2368C104.688 18.4345 101.756 18.1212 99.6001 16.4296C102.705 13.9846 103.243 9.48656 100.802 6.37859C100.452 5.92854 100.048 5.52279 99.6001 5.17031C101.756 3.47872 104.688 3.16534 107.152 4.36311C109.617 5.56088 111.182 8.05982 111.183 10.7999Z" fill="#F69E1E"/>
<path d="M125.1 2.70006C125.1 1.20886 126.308 0 127.8 0H154.8C156.291 0 157.5 1.20886 157.5 2.70006V18.9004C157.5 20.3916 156.291 21.6005 154.8 21.6005H127.8C126.308 21.6005 125.1 20.3916 125.1 18.9004V2.70006Z" fill="white"/>
<path d="M131.094 12.0829V17.591H136.669L137.25 16.7675L137.817 17.591H141.226V16.349H141.604C141.947 16.352 142.288 16.3019 142.616 16.2005V17.591H144.932V16.6055L145.715 17.591H156.258C156.692 17.5986 157.118 17.4814 157.487 17.2535V19.5756C157.178 20.7718 156.097 21.6059 154.861 21.6006H127.8C126.308 21.6006 125.1 20.3917 125.1 18.9005V10.3954H126.639L126.956 9.57183H127.712L128.022 10.3954H140.402V9.40983L141.185 10.3954H144.432V9.89584C144.908 10.2347 145.481 10.41 146.066 10.3954H148.003L148.313 9.57183H149.069L149.4 10.3954H152.708V9.32883L153.383 10.3954H155.664V4.88723H153.241V6.00775L152.519 4.88723H150.399V6.30476L149.724 4.88723H146.12C145.51 4.86956 144.913 5.06532 144.432 5.44074V4.88723H132.525L132.12 6.07525L131.715 4.86023H129.015V6.27776L128.38 4.86023H126.18L125.1 7.42528V2.70018C125.1 1.20897 126.308 0.000116606 127.8 0.000116606H154.861C156.102 -0.0113501 157.19 0.823975 157.5 2.02516V12.0829H137.83L137.25 12.8929L136.683 12.0829H131.094Z" fill="#296DB6"/>
<path fill-rule="evenodd" clip-rule="evenodd" d="M139.491 12.96H141.59V12.933C141.94 12.9036 142.285 13.0259 142.538 13.2688C142.791 13.5116 142.928 13.8515 142.913 14.202C142.922 14.5567 142.78 14.8985 142.523 15.1429C142.266 15.3873 141.917 15.5114 141.563 15.4846H140.416V16.7401H139.491V12.96ZM135.029 13.743V12.933H131.971V16.7401H135.029V15.9301H132.889V15.2551H134.989V14.4315H132.889V13.7565L135.029 13.743ZM137.79 14.8501L139.315 12.96H138.195L137.25 14.1345L136.312 12.933H135.164L136.71 14.8501L135.225 16.7401H136.332L137.25 15.5251L138.168 16.7536H139.329L137.79 14.8501ZM141.509 14.7015H140.416V13.743H141.509C141.766 13.743 141.975 13.9516 141.975 14.2088C141.975 14.466 141.766 14.6745 141.509 14.6745V14.7015ZM146.815 14.0333C146.893 14.6969 146.419 15.2983 145.755 15.3766L147.031 16.7401H145.877L144.742 15.3901H144.324V16.7401H143.406V12.9735H145.471C146.135 12.8952 146.736 13.3697 146.815 14.0333ZM145.39 14.6205H144.324V13.743H145.39C145.511 13.7274 145.631 13.7645 145.722 13.8447C145.813 13.925 145.864 14.0405 145.863 14.1615C145.866 14.2833 145.816 14.4003 145.724 14.4811C145.633 14.5618 145.511 14.5981 145.39 14.58V14.6205ZM150.318 12.9735V13.7835L148.178 13.7565V14.4315H150.264V15.2551H148.178V15.9301H150.318V16.7401H147.247V12.9735H150.318ZM152.863 14.4585H151.979C151.842 14.486 151.702 14.4283 151.625 14.3125C151.547 14.1966 151.547 14.0454 151.625 13.9296C151.702 13.8137 151.842 13.7561 151.979 13.7835H153.619L153.983 12.9735H152.006C151.669 12.9345 151.332 13.0427 151.081 13.2703C150.83 13.498 150.69 13.8228 150.696 14.1615C150.676 14.4767 150.797 14.7846 151.026 15.0013C151.256 15.218 151.571 15.321 151.884 15.2821H152.775C152.912 15.2546 153.052 15.3123 153.129 15.4281C153.207 15.544 153.207 15.6952 153.129 15.811C153.052 15.9269 152.912 15.9845 152.775 15.9571H150.804V16.7671H152.775C153.115 16.7949 153.451 16.6742 153.695 16.4362C153.94 16.1981 154.07 15.8659 154.051 15.5251C154.068 15.2131 153.945 14.9098 153.715 14.6981C153.485 14.4865 153.172 14.3887 152.863 14.4315V14.4585ZM157.136 13.7835H155.495L155.475 13.7565C155.339 13.7291 155.199 13.7867 155.121 13.9026C155.044 14.0184 155.044 14.1696 155.121 14.2855C155.199 14.4013 155.339 14.459 155.475 14.4315H156.393C156.86 14.3835 157.306 14.6389 157.5 15.0661V15.9706C157.314 16.4852 156.803 16.8078 156.258 16.7536H154.321V15.9436H156.272C156.408 15.971 156.548 15.9134 156.626 15.7975C156.703 15.6817 156.703 15.5305 156.626 15.4146C156.548 15.2988 156.408 15.2411 156.272 15.2686H155.401C155.088 15.3075 154.773 15.2045 154.543 14.9878C154.314 14.7711 154.192 14.4632 154.213 14.148C154.207 13.8093 154.347 13.4845 154.598 13.2568C154.849 13.0292 155.186 12.921 155.522 12.96H157.5L157.136 13.7835Z" fill="#296DB6"/>
<path fill-rule="evenodd" clip-rule="evenodd" d="M142.279 6.93873C142.294 7.54725 141.844 8.06739 141.239 8.14026L142.508 9.54429H141.361L140.227 8.19426H139.808V9.54429H138.87V5.7372H140.929C141.273 5.69209 141.619 5.79871 141.878 6.02934C142.138 6.25998 142.284 6.59186 142.279 6.93873ZM127.955 5.7372H126.753L125.1 9.54429H126.099L126.45 8.77477H128.225L128.549 9.57129H129.588L127.955 5.7372ZM126.706 8.00525L127.077 7.11423L127.32 6.52022L127.563 7.11423L127.928 8.00525H126.706ZM132.255 7.93775L132.997 5.7372H134.476V9.54429H133.585V7.04673V6.46622L133.409 7.04673L132.525 9.54429H131.715L130.851 7.04673L130.662 6.46622V7.04673V9.54429H129.764V5.7372H131.256L132.012 7.93775L132.133 8.35626L132.255 7.93775ZM138.262 6.54722V5.7372H135.225V9.54429H138.262V8.73427H136.123V8.05926H138.208V7.23574H136.123V6.56072L138.262 6.54722ZM140.875 7.38424H139.808V6.54722H140.875C140.994 6.53385 141.114 6.57174 141.204 6.6515C141.294 6.73126 141.346 6.84544 141.347 6.96573C141.351 7.08749 141.3 7.20449 141.209 7.28525C141.117 7.36601 140.995 7.40226 140.875 7.38424ZM142.724 9.54429V5.7372H143.649V9.54429H142.724ZM146.099 6.56072H147.092V5.7372H146.025C145.523 5.70547 145.032 5.89496 144.682 6.25583C144.331 6.6167 144.156 7.11283 144.203 7.61375V7.66775C144.146 8.1615 144.31 8.655 144.651 9.01666C144.992 9.37832 145.475 9.57135 145.971 9.54429H146.025L146.396 8.73427H146.093C145.812 8.74867 145.54 8.63787 145.35 8.43185C145.16 8.22583 145.071 7.94588 145.107 7.66775V7.61375C145.075 7.33778 145.166 7.06168 145.356 6.85883C145.546 6.65599 145.815 6.54696 146.093 6.56072H146.099ZM148.111 5.7372H149.326L150.953 9.57129H149.913L149.589 8.77477H147.787L147.463 9.54429H146.477L148.111 5.7372ZM148.084 8.00525L148.435 7.11423L148.678 6.52022L148.907 7.11423L149.272 8.00525H148.084ZM153.862 7.76225V5.7372H154.8V9.54429H153.687L152.276 7.39774L152.033 6.97923V7.42474V9.57129H151.128V5.7642H152.255L153.606 7.78925L153.862 8.22126V7.76225Z" fill="#296DB6"/>
<path d="M250.199 2.70006C250.199 1.20886 251.408 0 252.899 0H279.9C281.391 0 282.6 1.20886 282.6 2.70006V18.9004C282.6 20.3916 281.391 21.6005 279.9 21.6005H252.899C251.408 21.6005 250.199 20.3916 250.199 18.9004V2.70006Z" fill="white"/>
<g opacity="0.01">
<path d="M253.338 2.15967H279.468V19.4401H253.338V2.15967Z" fill="white"/>
</g>
<path d="M262.957 5.17041H269.849V16.4297H262.957V5.17041Z" fill="#7272B5"/>
<path d="M263.7 10.8002C263.688 8.60879 264.684 6.53347 266.4 5.17058C263.464 2.86155 259.246 3.19685 256.711 5.94078C254.177 8.6847 254.177 12.9157 256.711 15.6596C259.246 18.4036 263.464 18.7389 266.4 16.4298C264.684 15.0669 263.688 12.9916 263.7 10.8002Z" fill="#ED1C24"/>
<path fill-rule="evenodd" clip-rule="evenodd" d="M277.294 15.0053V15.2348H277.254V15.0053H277.159V14.958H277.395V15.0053H277.294ZM277.753 14.958V15.2348H277.706V15.0255L277.632 15.2078H277.578L277.497 15.0255V15.2348H277.449V14.958H277.517L277.605 15.1538L277.686 14.958H277.753Z" fill="#00A1DE"/>
<path d="M277.983 10.7999C277.981 13.5401 276.416 16.039 273.951 17.2368C271.487 18.4345 268.555 18.1212 266.399 16.4296C269.505 13.9846 270.042 9.48656 267.601 6.37859C267.251 5.92854 266.847 5.52279 266.399 5.17031C268.555 3.47872 271.487 3.16534 273.951 4.36311C276.416 5.56088 277.981 8.05982 277.983 10.7999Z" fill="#00A1DE"/>
<path d="M333.599 2.70006C333.599 1.20886 334.808 0 336.299 0H363.3C364.791 0 366 1.20886 366 2.70006V18.9004C366 20.3916 364.791 21.6005 363.3 21.6005H336.299C334.808 21.6005 333.599 20.3916 333.599 18.9004V2.70006Z" fill="white"/>
<path fill-rule="evenodd" clip-rule="evenodd" d="M336.299 0H363.3C364.791 0 366 1.20886 366 2.70006V18.9004C366 20.3916 364.791 21.6005 363.3 21.6005H336.299C334.808 21.6005 333.599 20.3916 333.599 18.9004V2.70006C333.599 1.20886 334.808 0 336.299 0ZM364.65 2.70006C364.65 1.95446 364.045 1.35003 363.3 1.35003H336.299C335.554 1.35003 334.949 1.95446 334.949 2.70006V18.9004C334.949 19.646 335.554 20.2505 336.299 20.2505H363.3C364.045 20.2505 364.65 19.646 364.65 18.9004V2.70006Z" fill="#231F20"/>
<path d="M364.65 11.9614V18.9006C364.65 19.6462 364.046 20.2506 363.3 20.2506H341.646C356.55 17.6991 364.65 11.9614 364.65 11.9614Z" fill="#EE7623"/>
<path fill-rule="evenodd" clip-rule="evenodd" d="M336.299 7.18212H337.535C338.138 7.13049 338.734 7.3367 339.177 7.74966C339.62 8.16262 339.866 8.7437 339.857 9.34892C339.855 9.98981 339.571 10.5975 339.08 11.0095C338.642 11.3572 338.093 11.5346 337.535 11.509H336.299V7.18212ZM337.366 10.8002C337.785 10.8365 338.201 10.7027 338.52 10.4289C338.827 10.1485 339.001 9.75128 338.999 9.33542C339 8.92373 338.826 8.53113 338.52 8.2554C338.197 7.99094 337.782 7.8648 337.366 7.90439H337.143V10.8002H337.366Z" fill="#231F20"/>
<path d="M340.248 7.17578H341.092V11.5094H340.248V7.17578Z" fill="#231F20"/>
<path d="M343.164 8.83603C342.658 8.65377 342.489 8.52552 342.489 8.29602C342.489 8.06651 342.753 7.81 343.117 7.81C343.383 7.82117 343.63 7.94974 343.792 8.16101L344.231 7.58725C343.884 7.27067 343.431 7.09702 342.962 7.10124C342.616 7.07906 342.276 7.19919 342.021 7.43375C341.766 7.6683 341.618 7.99689 341.612 8.34327C341.612 8.94403 341.882 9.24779 342.672 9.53129C342.875 9.59633 343.071 9.67993 343.259 9.78105C343.418 9.87291 343.516 10.0428 343.515 10.2266C343.514 10.3999 343.44 10.5648 343.312 10.6815C343.184 10.7981 343.013 10.8559 342.84 10.8408C342.447 10.8451 342.087 10.6178 341.922 10.2603L341.375 10.7868C341.695 11.3271 342.288 11.6446 342.915 11.6103C343.304 11.637 343.687 11.4985 343.969 11.2289C344.252 10.9592 344.408 10.5832 344.4 10.1928C344.4 9.50429 344.123 9.18704 343.164 8.83603Z" fill="#231F20"/>
<path d="M344.676 9.34243C344.671 9.94858 344.911 10.5311 345.342 10.9572C345.773 11.3833 346.359 11.6165 346.965 11.6037C347.333 11.6059 347.696 11.5203 348.024 11.354V10.3617C347.769 10.6598 347.397 10.8323 347.005 10.8342C346.608 10.8442 346.225 10.6881 345.949 10.4036C345.672 10.1191 345.526 9.73205 345.547 9.33568C345.534 8.94973 345.677 8.57488 345.944 8.29554C346.211 8.01621 346.579 7.85588 346.965 7.85065C347.371 7.85228 347.758 8.02943 348.024 8.33666V7.34439C347.706 7.16803 347.349 7.07513 346.985 7.07438C346.377 7.06718 345.792 7.30252 345.359 7.72826C344.926 8.15399 344.68 8.73496 344.676 9.34243Z" fill="#231F20"/>
<path d="M354.727 10.0851L353.566 7.17578H352.648L354.484 11.6174H354.936L356.813 7.17578H355.895L354.727 10.0851Z" fill="#231F20"/>
<path d="M357.191 11.5094H359.594V10.7736H358.035V9.60584H359.533V8.87007H358.035V7.91155H359.594V7.17578H357.191V11.5094Z" fill="#231F20"/>
<path fill-rule="evenodd" clip-rule="evenodd" d="M362.935 8.45116C362.981 9.05745 362.551 9.59624 361.95 9.68644L363.3 11.509H362.274L361.099 9.76744H360.998V11.509H360.154V7.18213H361.403C362.375 7.18213 362.935 7.64789 362.935 8.45116ZM361.025 9.16667H361.275C361.781 9.16667 362.078 8.99117 362.078 8.53216C362.078 8.07315 361.795 7.85714 361.275 7.85714H361.025V9.16667Z" fill="#231F20"/>
<path d="M352.898 9.34233C352.898 10.6136 351.867 11.6441 350.596 11.6441C349.325 11.6441 348.294 10.6136 348.294 9.34233C348.294 8.07108 349.325 7.04053 350.596 7.04053C351.866 7.04423 352.894 8.07262 352.898 9.34233Z" fill="#EE7623"/>
<path fill-rule="evenodd" clip-rule="evenodd" d="M363.374 7.25684C363.379 7.30617 363.348 7.35188 363.3 7.36484L363.415 7.5336H363.313L363.192 7.3716V7.5336H363.104V7.14209H363.232C363.327 7.14209 363.374 7.18259 363.374 7.25684ZM363.219 7.21634V7.31084H363.232C363.289 7.31084 363.289 7.30128 363.287 7.27411C363.287 7.26899 363.286 7.26326 363.286 7.25684C363.286 7.21634 363.259 7.21634 363.219 7.21634Z" fill="#231F20"/>
<path fill-rule="evenodd" clip-rule="evenodd" d="M363.028 7.10177C363.088 7.03847 363.172 7.00191 363.26 7.00014C363.352 6.99445 363.443 7.02771 363.509 7.09185C363.576 7.15599 363.613 7.24513 363.611 7.33765C363.611 7.52405 363.46 7.67515 363.273 7.67515C363.087 7.67515 362.936 7.52405 362.936 7.33765C362.934 7.24992 362.967 7.16507 363.028 7.10177ZM363.26 7.60765C363.324 7.60843 363.385 7.58136 363.428 7.5334C363.485 7.4841 363.517 7.41258 363.516 7.33765C363.52 7.26667 363.495 7.19724 363.446 7.14512C363.398 7.09299 363.331 7.06262 363.26 7.06089C363.188 7.06266 363.12 7.09281 363.071 7.14472C363.021 7.19663 362.995 7.26603 362.996 7.33765C362.995 7.40863 363.021 7.47733 363.071 7.52817C363.121 7.57901 363.189 7.60767 363.26 7.60765Z" fill="#231F20"/>
<path d="M166.8 2.70006C166.8 1.20886 168.009 0 169.5 0H196.5C197.992 0 199.201 1.20886 199.201 2.70006V18.9004C199.201 20.3916 197.992 21.6005 196.5 21.6005H169.5C168.009 21.6005 166.8 20.3916 166.8 18.9004V2.70006Z" fill="#EBECEC"/>
<path fill-rule="evenodd" clip-rule="evenodd" d="M169.5 0H196.5C197.992 0 199.201 1.20886 199.201 2.70006V18.9004C199.201 20.3916 197.992 21.6005 196.5 21.6005H169.5C168.009 21.6005 166.8 20.3916 166.8 18.9004V2.70006C166.8 1.20886 168.009 0 169.5 0ZM197.851 2.70006C197.851 1.95446 197.246 1.35003 196.5 1.35003H169.5C168.754 1.35003 168.15 1.95446 168.15 2.70006V18.9004C168.15 19.646 168.754 20.2505 169.5 20.2505H196.5C197.246 20.2505 197.851 19.646 197.851 18.9004V2.70006Z" fill="#C2C1C0"/>
<path d="M189.946 12.5351C188.988 16.3671 185.106 18.6974 181.273 17.7413C177.441 16.7852 175.108 12.9043 176.062 9.07123C177.015 5.23813 180.895 2.90301 184.728 3.85443C186.572 4.31207 188.159 5.48432 189.138 7.11272C190.116 8.74113 190.407 10.692 189.946 12.5351Z" fill="#F7941F"/>
<path fill-rule="evenodd" clip-rule="evenodd" d="M186.16 9.78082C186.301 8.82905 185.572 8.31604 184.58 7.97178L184.904 6.6825L184.121 6.48675L183.804 7.74228L183.176 7.59377L183.493 6.3315L182.704 6.13574L182.386 7.42502L181.88 7.31027L180.793 7.04026L180.584 7.87728C180.584 7.87728 181.165 8.01228 181.158 8.01903C181.384 8.04721 181.546 8.2513 181.522 8.47804L181.158 9.94958H181.151L180.638 11.9746C180.615 12.0463 180.564 12.1058 180.497 12.14C180.43 12.1742 180.352 12.1803 180.28 12.1569L179.707 12.0151L179.322 12.9129L180.341 13.1694L180.901 13.3179L180.577 14.6207L181.36 14.8164L181.684 13.5272L182.305 13.6892L181.988 14.9717L182.771 15.1674L183.102 13.8647C184.452 14.1212 185.444 14.0132 185.869 12.8049C186.054 12.4608 186.08 12.0537 185.941 11.6888C185.803 11.3238 185.513 11.0366 185.147 10.9013C185.703 10.7849 186.114 10.3135 186.153 9.74707L186.16 9.78082ZM184.351 12.2986C184.128 13.1874 182.732 12.8233 182.092 12.6564L182.092 12.6564C182.032 12.6408 181.979 12.6269 181.934 12.6159L182.359 10.8811C182.414 10.895 182.482 10.9103 182.558 10.9276L182.558 10.9276C183.224 11.0784 184.575 11.3844 184.351 12.2986ZM182.694 10.1243C183.22 10.2651 184.389 10.5783 184.594 9.76732H184.607C184.812 8.94378 183.699 8.68768 183.167 8.56521C183.102 8.55015 183.045 8.53712 183.001 8.5253L182.569 10.0913C182.604 10.1003 182.647 10.1116 182.694 10.1243Z" fill="white"/>
<path d="M208.5 2.70006C208.5 1.20886 209.708 0 211.2 0H238.2C239.691 0 240.9 1.20886 240.9 2.70006V18.9004C240.9 20.3916 239.691 21.6005 238.2 21.6005H211.2C209.708 21.6005 208.5 20.3916 208.5 18.9004V2.70006Z" fill="white"/>
<path d="M230.167 12.5351H231.726H231.915C232.237 12.4728 232.468 12.1881 232.462 11.8601C232.451 11.5384 232.228 11.2631 231.915 11.1851C231.852 11.1779 231.789 11.1779 231.726 11.1851H230.167V12.5351Z" fill="#40A648"/>
<path d="M231.544 2.7002C230.053 2.7002 228.844 3.90905 228.844 5.40026V8.20157H232.658C232.748 8.19101 232.838 8.19101 232.928 8.20157C233.785 8.24207 234.426 8.68758 234.426 9.4571C234.409 10.1318 233.866 10.6747 233.191 10.6924C234.069 10.7531 234.737 11.2391 234.737 12.0019C234.737 12.7647 233.994 13.3519 233.016 13.3519H228.831V18.9006H232.8C234.291 18.9006 235.5 17.6917 235.5 16.2005V2.7002H231.544Z" fill="#40A648"/>
<path d="M232.273 9.65988C232.298 9.32583 232.058 9.03029 231.726 8.98486H231.578H230.167V10.2876H231.578C231.627 10.2952 231.677 10.2952 231.726 10.2876C232.044 10.2464 232.279 9.97308 232.273 9.65313V9.65988Z" fill="#40A648"/>
<path d="M216.599 2.7002C215.108 2.7002 213.899 3.90905 213.899 5.40026V12.0627C214.619 12.4398 215.416 12.6475 216.228 12.6702C216.606 12.7143 216.985 12.5897 217.263 12.3297C217.541 12.0697 217.691 11.7005 217.673 11.3201V8.18807H219.975V11.3201C219.975 12.5352 219.219 13.5274 216.653 13.5274C215.725 13.5267 214.8 13.4134 213.899 13.1899V18.9006H217.862C219.353 18.9006 220.562 17.6917 220.562 16.2005V2.7002H216.599Z" fill="#0D67B0"/>
<path d="M224.085 2.7002C222.594 2.7002 221.385 3.90905 221.385 5.40026V8.93059C222.06 8.35007 223.255 7.97881 225.165 8.07332C225.88 8.11598 226.59 8.22444 227.285 8.39732V9.5381C226.658 9.20171 225.969 8.99942 225.26 8.94409C223.809 8.84283 222.931 9.5516 222.931 10.8004C222.931 12.0492 223.809 12.7714 225.26 12.6567C225.967 12.592 226.655 12.3903 227.285 12.0627V13.2034C226.59 13.3777 225.88 13.4862 225.165 13.5274C223.255 13.6219 222.067 13.2507 221.385 12.6702V18.9006H225.375C226.866 18.9006 228.075 17.6917 228.075 16.2005V2.7002H224.085Z" fill="#BE2034"/>
<path d="M41.7002 2.70006C41.7002 1.20886 42.9091 0 44.4003 0H71.4009C72.8921 0 74.1009 1.20886 74.1009 2.70006V18.9004C74.1009 20.3916 72.8921 21.6005 71.4009 21.6005H44.4003C42.9091 21.6005 41.7002 20.3916 41.7002 18.9004V2.70006Z" fill="white"/>
<path fill-rule="evenodd" clip-rule="evenodd" d="M44.4003 0H71.4009C72.8921 0 74.1009 1.20886 74.1009 2.70006V18.9004C74.1009 20.3916 72.8921 21.6005 71.4009 21.6005H44.4003C42.9091 21.6005 41.7002 20.3916 41.7002 18.9004V2.70006C41.7002 1.20886 42.9091 0 44.4003 0ZM72.7509 2.70006C72.7509 1.95446 72.1465 1.35003 71.4009 1.35003H44.4003C43.6547 1.35003 43.0502 1.95446 43.0502 2.70006V18.9004C43.0502 19.646 43.6547 20.2505 44.4003 20.2505H71.4009C72.1465 20.2505 72.7509 19.646 72.7509 18.9004V2.70006Z" fill="#CCCCCB"/>
<path d="M55.4301 17.0911L55.6663 15.606H55.1398H52.6558L54.3838 4.63029C54.3884 4.59629 54.4052 4.56511 54.4311 4.54254C54.4582 4.52157 54.4913 4.50975 54.5256 4.50879H58.7174C60.1147 4.50879 61.0732 4.79905 61.5795 5.37281C61.8035 5.61347 61.9595 5.90931 62.0317 6.23008C62.1105 6.6199 62.1105 7.02153 62.0317 7.41135V7.74886L62.268 7.88386C62.4478 7.97351 62.6102 8.09468 62.7472 8.24162C62.9536 8.4907 63.0868 8.79213 63.132 9.11239C63.1826 9.53105 63.1643 9.95515 63.078 10.3679C62.989 10.8693 62.8131 11.3513 62.5582 11.7922C62.3523 12.1457 62.0739 12.4516 61.7415 12.69C61.4068 12.9182 61.0343 13.085 60.6412 13.1827C60.1999 13.294 59.7462 13.3485 59.2912 13.3447H58.9604C58.7286 13.3448 58.5041 13.426 58.3259 13.5742C58.1468 13.7252 58.0291 13.9365 57.9951 14.1683V14.3033L57.5834 16.9223V17.0236C57.5883 17.0412 57.5883 17.0599 57.5834 17.0776H57.5429L55.4301 17.0911Z" fill="#253D80"/>
<path d="M62.4907 7.47949L62.4502 7.72925C61.8967 10.5643 59.9999 11.5498 57.5834 11.5498H56.3548C56.0593 11.5495 55.8073 11.7642 55.7608 12.0561L55.1331 16.0522L54.9508 17.1862C54.9371 17.277 54.9635 17.3693 55.023 17.4392C55.0826 17.5091 55.1695 17.5498 55.2613 17.5507H57.4484C57.7077 17.5505 57.9282 17.3614 57.9681 17.1052V16.9972L58.3799 14.3849V14.2431C58.4167 13.988 58.6351 13.7983 58.8929 13.7976H59.2507C61.3635 13.7976 63.024 12.9404 63.5033 10.4226C63.7626 9.56201 63.6026 8.62963 63.0712 7.90475C62.9026 7.73182 62.7065 7.58811 62.4907 7.47949V7.47949Z" fill="#189BD7"/>
<path d="M61.9102 7.24989L61.6537 7.18239L61.3702 7.12838C61.0128 7.07493 60.6516 7.0501 60.2902 7.05413H56.9961C56.9192 7.05202 56.8428 7.06822 56.7734 7.10138C56.6169 7.17466 56.5077 7.32183 56.4831 7.49289L55.8081 11.9277V12.056C55.8546 11.7641 56.1065 11.5494 56.4021 11.5497H57.6306C60.0472 11.5497 61.944 10.5642 62.4975 7.72915L62.538 7.47939C62.3926 7.40426 62.2414 7.34105 62.0857 7.29039L61.9102 7.24989Z" fill="#242E65"/>
<path d="M56.4831 7.49287C56.5077 7.32181 56.6168 7.17464 56.7733 7.10136C56.8428 7.06819 56.9191 7.052 56.9961 7.05411H60.2902C60.6516 7.05008 61.0127 7.07491 61.3702 7.12836L61.6537 7.18236L61.9102 7.24987L62.0384 7.29037C62.1941 7.34103 62.3453 7.40424 62.4907 7.47937C62.7101 6.63602 62.509 5.73863 61.9507 5.06957C61.2757 4.35405 60.1687 4.05029 58.7241 4.05029H54.5255C54.2299 4.04993 53.978 4.26465 53.9315 4.55655L52.1832 15.6336C52.1676 15.738 52.198 15.8441 52.2666 15.9244C52.3353 16.0047 52.4354 16.0513 52.541 16.0521H55.133L55.8081 11.9277L56.4831 7.49287Z" fill="#253D80"/>
<path d="M291.899 2.70006C291.899 1.20886 293.108 0 294.599 0H321.6C323.091 0 324.3 1.20886 324.3 2.70006V18.9004C324.3 20.3916 323.091 21.6005 321.6 21.6005H294.599C293.108 21.6005 291.899 20.3916 291.899 18.9004V2.70006Z" fill="white"/>
<path fill-rule="evenodd" clip-rule="evenodd" d="M294.599 0H321.6C323.091 0 324.3 1.20886 324.3 2.70006V18.9004C324.3 20.3916 323.091 21.6005 321.6 21.6005H294.599C293.108 21.6005 291.899 20.3916 291.899 18.9004V2.70006C291.899 1.20886 293.108 0 294.599 0ZM322.95 2.70006C322.95 1.95446 322.346 1.35003 321.6 1.35003H294.599C293.854 1.35003 293.249 1.95446 293.249 2.70006V18.9004C293.249 19.646 293.854 20.2505 294.599 20.2505H321.6C322.346 20.2505 322.95 19.646 322.95 18.9004V2.70006Z" fill="#0779BE"/>
<path fill-rule="evenodd" clip-rule="evenodd" d="M300.762 13.993C300.762 14.4317 300.506 15.5252 298.946 15.5252H297.725V15.4105C297.731 15.4099 297.736 15.4093 297.742 15.4087C297.994 15.383 298.123 15.3699 298.123 15.073V12.9467C298.123 12.5687 297.92 12.5687 297.725 12.5687V12.4539H299C299.441 12.4108 299.88 12.5516 300.214 12.8429C300.547 13.1343 300.746 13.5504 300.762 13.993ZM298.899 12.6159C298.784 12.6093 298.67 12.6093 298.555 12.6159L298.528 15.0055C298.528 15.343 298.771 15.3835 298.987 15.3835C299.341 15.3972 299.684 15.2562 299.927 14.9971C300.169 14.7379 300.287 14.3862 300.249 14.0335C300.268 13.6639 300.134 13.3029 299.878 13.0349C299.623 12.7669 299.269 12.6155 298.899 12.6159Z" fill="#211E1F"/>
<path d="M301.856 15.5249V15.4101H301.782C301.654 15.4101 301.559 15.4101 301.559 15.2616V13.5741V13.5133C301.532 13.5073 301.505 13.5073 301.478 13.5133C301.324 13.5759 301.166 13.63 301.005 13.6753V13.7429C301.167 13.8306 301.235 13.8576 301.235 14.0534V15.2414C301.235 15.3899 301.147 15.3899 301.026 15.3899H300.938V15.5249H301.883H301.856Z" fill="#211E1F"/>
<path d="M301.383 12.8656C301.442 12.8656 301.498 12.842 301.539 12.8C301.579 12.758 301.601 12.7013 301.599 12.6428C301.596 12.5262 301.5 12.4335 301.383 12.4336C301.264 12.4336 301.167 12.5303 301.167 12.6496C301.167 12.7689 301.264 12.8656 301.383 12.8656Z" fill="#211E1F"/>
<path d="M304.185 15.4376H304.111C303.982 15.4376 303.888 15.4376 303.888 15.2891V14.1753C303.888 13.8378 303.76 13.561 303.382 13.561C303.1 13.584 302.834 13.7004 302.625 13.8918V13.6083C302.625 13.5745 302.625 13.561 302.625 13.561C302.436 13.6414 302.242 13.7112 302.045 13.7703V13.858C302.247 13.939 302.301 13.9863 302.301 14.1483V15.3093C302.301 15.4578 302.214 15.4578 302.085 15.4578H302.011V15.5253H302.95V15.4106H302.868C302.747 15.4106 302.652 15.4106 302.652 15.2621V13.993C302.8 13.8793 302.974 13.805 303.159 13.777C303.265 13.7626 303.372 13.7968 303.451 13.87C303.529 13.9433 303.571 14.0479 303.564 14.155V15.2891C303.564 15.4376 303.476 15.4376 303.355 15.4376H303.274V15.5253H304.185V15.4376Z" fill="#211E1F"/>
<path fill-rule="evenodd" clip-rule="evenodd" d="M305.825 15.1201C305.651 15.4103 305.346 15.5969 305.008 15.6196C304.771 15.6143 304.546 15.5142 304.384 15.3416C304.221 15.169 304.135 14.9384 304.144 14.7015C304.144 13.8375 304.725 13.581 305.028 13.581C305.219 13.5619 305.408 13.6245 305.55 13.7532C305.692 13.8819 305.772 14.0647 305.771 14.256V14.337H305.73H304.495C304.488 14.4224 304.488 14.5082 304.495 14.5935C304.48 14.9863 304.778 15.3208 305.17 15.3496C305.399 15.3369 305.613 15.2322 305.764 15.0593L305.825 15.1201ZM305.008 13.6823C305.014 13.6822 305.019 13.6822 305.025 13.6823H305.008ZM305.03 13.6824C305.028 13.6824 305.026 13.6823 305.025 13.6823H305.042C305.038 13.6823 305.034 13.6823 305.03 13.6824ZM305.03 13.6824C305.128 13.6859 305.221 13.728 305.288 13.8001C305.36 13.8775 305.396 13.9819 305.386 14.0873C305.386 14.1413 305.386 14.1953 305.265 14.1953H304.536C304.589 13.8829 304.766 13.6883 305.03 13.6824Z" fill="#211E1F"/>
<path d="M306.021 15.4377H305.899V15.5255H307.04V15.4107H306.797C306.669 15.4107 306.581 15.4107 306.581 15.2622V14.2564C306.583 14.0711 306.721 13.9155 306.905 13.8919C307.06 13.8919 307.06 13.9999 307.195 13.9999C307.252 13.9982 307.306 13.9735 307.344 13.9315C307.382 13.8895 307.402 13.8338 307.398 13.7772C307.398 13.7121 307.371 13.6499 307.324 13.6052C307.277 13.5604 307.213 13.5372 307.148 13.5409C306.885 13.5409 306.696 13.8244 306.588 13.9932V13.6017C306.588 13.5544 306.588 13.5409 306.547 13.5409C306.507 13.5409 306.331 13.6557 306.007 13.7907V13.8582C306.075 13.8582 306.237 13.9189 306.237 14.0539V15.2892C306.23 15.4377 306.142 15.4377 306.021 15.4377Z" fill="#211E1F"/>
<path d="M308.147 15.4778C307.854 15.4618 307.617 15.231 307.594 14.9378H307.513L307.567 15.4373C307.729 15.5324 307.912 15.5858 308.1 15.5925C308.62 15.5925 308.856 15.282 308.856 14.9918C308.856 14.3168 307.837 14.4585 307.837 13.9455C307.842 13.8605 307.881 13.7813 307.947 13.7265C308.012 13.6716 308.096 13.6458 308.181 13.6552C308.432 13.6437 308.646 13.8363 308.66 14.0872H308.775L308.741 13.6417C308.587 13.5614 308.416 13.5175 308.242 13.5135C308.076 13.4926 307.908 13.5419 307.78 13.6495C307.652 13.7572 307.575 13.9134 307.567 14.0805C307.567 14.7555 308.525 14.6205 308.525 15.1403C308.533 15.2395 308.495 15.3369 308.42 15.4033C308.346 15.4696 308.245 15.4972 308.147 15.4778Z" fill="#211E1F"/>
<path d="M312.73 15.3838L312.831 14.7425H312.73C312.664 15.1799 312.288 15.5036 311.846 15.5053C311.066 15.4407 310.482 14.7609 310.536 13.9797C310.494 13.626 310.605 13.271 310.841 13.0041C311.077 12.7372 311.415 12.5838 311.772 12.5824C312.232 12.5225 312.654 12.8451 312.717 13.3047H312.825L312.777 12.6769C312.449 12.5396 312.1 12.4597 311.745 12.4407C310.857 12.414 310.114 13.1063 310.077 13.9932C310.051 14.4442 310.22 14.8848 310.542 15.2017C310.864 15.5186 311.308 15.6809 311.758 15.647C312.097 15.6265 312.428 15.5369 312.73 15.3838Z" fill="#211E1F"/>
<path d="M313.925 15.5252V15.4104H313.851C313.722 15.4104 313.628 15.4104 313.628 15.2619V12.2243V12.1636C313.628 12.1636 313.581 12.1636 313.533 12.2108C313.389 12.2883 313.238 12.3516 313.081 12.3998V12.4741C313.243 12.5213 313.311 12.5281 313.311 12.8183V15.2619C313.311 15.4104 313.223 15.4104 313.101 15.4104H313.014V15.5252H313.959H313.925Z" fill="#211E1F"/>
<path d="M314.175 13.9662V15.0934C314.159 15.229 314.203 15.3647 314.295 15.4656C314.387 15.5665 314.518 15.6228 314.654 15.6199C314.953 15.5992 315.232 15.4666 315.437 15.2487V15.6064C315.645 15.5443 315.857 15.497 316.072 15.4647V15.3904H315.93C315.856 15.3904 315.802 15.3904 315.802 15.3094V13.6894C315.802 13.6421 315.802 13.6084 315.802 13.6084C315.802 13.6084 315.512 13.6421 315.127 13.6691V13.7502C315.282 13.7907 315.491 13.8447 315.491 13.9257V15.1137C315.347 15.2527 315.163 15.3445 314.965 15.3769C314.58 15.3769 314.58 14.9989 314.58 14.8707V13.7367C314.58 13.6421 314.58 13.6084 314.533 13.6084L313.966 13.6421V13.7232C314.175 13.7434 314.175 13.8514 314.175 13.9662Z" fill="#211E1F"/>
<path fill-rule="evenodd" clip-rule="evenodd" d="M316.328 14.7155V12.8254C316.328 12.5651 316.266 12.5495 316.092 12.5063C316.085 12.5047 316.079 12.5031 316.072 12.5014V12.4272C316.229 12.3815 316.381 12.3181 316.524 12.2382L316.625 12.1909C316.659 12.1909 316.659 12.2517 316.659 12.2517V13.865C316.841 13.6848 317.079 13.5727 317.334 13.5477C317.567 13.558 317.785 13.6622 317.939 13.8366C318.093 14.011 318.169 14.2405 318.151 14.4725C318.174 15.0802 317.705 15.594 317.098 15.6267C316.886 15.6255 316.677 15.5722 316.49 15.4715L316.355 15.5727L316.268 15.5255C316.309 15.2575 316.33 14.9867 316.328 14.7155ZM317.098 13.757C316.938 13.7746 316.789 13.8488 316.679 13.9662L316.646 15.0327C316.656 15.2781 316.852 15.4747 317.098 15.485C317.577 15.485 317.773 15.0192 317.773 14.6277C317.797 14.2094 317.509 13.8373 317.098 13.757Z" fill="#211E1F"/>
<path d="M298.069 16.5111H297.718V16.6056H297.765C297.853 16.6056 297.927 16.6056 297.934 16.7338V17.9826C297.934 18.1041 297.853 18.1108 297.765 18.1108H297.705V18.2256H298.056H298.434V18.1378H298.413C298.326 18.1378 298.245 18.1378 298.245 18.0096V16.7203C298.245 16.5988 298.326 16.5921 298.413 16.5921H298.461V16.4976L298.069 16.5111Z" fill="#211E1F"/>
<path d="M300.169 16.5105H299.831V16.605H299.892C299.966 16.605 300.088 16.605 300.094 16.821V17.6985L299.041 16.5172C298.96 16.5172 298.893 16.5172 298.819 16.5172H298.542V16.6117H298.582C298.637 16.6099 298.69 16.6304 298.73 16.6686C298.769 16.7068 298.792 16.7593 298.792 16.8142V17.8268C298.792 18.0158 298.744 18.117 298.582 18.117H298.528V18.225H298.859H299.163V18.1373H299.109C298.933 18.1373 298.9 18.0765 298.893 17.8673V16.875L300.108 18.225H300.223C300.223 18.1508 300.223 18.0698 300.223 17.9888V16.875C300.223 16.5982 300.331 16.5847 300.425 16.5847H300.472V16.4902L300.169 16.5105Z" fill="#211E1F"/>
<path d="M302.126 16.4229C302.126 16.4836 302.072 16.4836 302.005 16.4836H300.756C300.695 16.4836 300.655 16.4836 300.634 16.4229H300.56C300.564 16.4881 300.564 16.5534 300.56 16.6186C300.56 16.6929 300.56 16.7604 300.56 16.8211H300.655C300.695 16.6456 300.695 16.6119 300.871 16.6119H301.249V17.8809C301.249 18.0631 301.195 18.0631 301.06 18.0699H301.006V18.2251H301.411H301.795V18.1374H301.741C301.627 18.1374 301.552 18.1374 301.552 17.9416V16.6389H301.93C302.086 16.6389 302.092 16.7671 302.099 16.8616L302.187 16.8279V16.6321C302.187 16.5714 302.187 16.5039 302.187 16.4364H302.119L302.126 16.4229Z" fill="#211E1F"/>
<path d="M303.557 17.7664C303.489 18.0364 303.368 18.0499 303.084 18.0499C302.929 18.0499 302.801 18.0499 302.801 17.9014V17.3546H303.078C303.24 17.3546 303.24 17.4423 303.253 17.5841H303.341C303.341 17.4896 303.341 17.4018 303.341 17.3141C303.341 17.2263 303.341 17.1251 303.341 17.0306H303.246C303.246 17.1588 303.206 17.2263 303.071 17.2331H302.794V16.6256H303.118C303.361 16.6256 303.381 16.7403 303.395 16.8956H303.476C303.476 16.8281 303.476 16.7336 303.476 16.6526V16.5176H302.862H302.268V16.6121H302.308C302.396 16.6121 302.47 16.6121 302.477 16.7403V17.9891C302.477 18.1106 302.396 18.1174 302.308 18.1174H302.268V18.2254H302.902H303.577C303.577 18.1039 303.631 17.9756 303.658 17.8474H303.584L303.557 17.7664Z" fill="#211E1F"/>
<path fill-rule="evenodd" clip-rule="evenodd" d="M304.745 17.3548L305.15 17.9556C305.181 18.0668 305.284 18.1421 305.4 18.1378V18.2256L305.137 18.1851H304.907C304.723 17.9406 304.556 17.6835 304.408 17.4156H304.266V17.9556C304.273 18.1378 304.34 18.1378 304.455 18.1378H304.495V18.2256H304.084H303.739V18.0973H303.793C303.881 18.0973 303.955 18.0568 303.955 17.9758V16.7608C303.955 16.5921 303.868 16.5921 303.793 16.5921H303.739V16.4976H304.111H304.495C304.792 16.4976 305.076 16.5853 305.076 16.9296C305.071 17.1287 304.937 17.3014 304.745 17.3548ZM304.367 17.3076C304.603 17.3076 304.725 17.2266 304.725 16.9431C304.725 16.8558 304.689 16.7725 304.625 16.7134C304.56 16.6543 304.474 16.625 304.387 16.6326H304.259V17.3076H304.367Z" fill="#211E1F"/>
<path d="M307.378 16.5921V16.4976H307.081H306.743V16.5921H306.804C306.878 16.5921 307 16.5921 307.006 16.8081V17.6856L305.94 16.5043C305.859 16.5043 305.791 16.5043 305.717 16.5043H305.44V16.5988H305.481C305.536 16.597 305.589 16.6175 305.629 16.6557C305.668 16.6939 305.69 16.7464 305.69 16.8013V17.8071C305.69 18.0028 305.643 18.1041 305.481 18.1041H305.44V18.2256H305.771H306.075V18.1378H306.021C305.845 18.1378 305.812 18.0771 305.812 17.8678V16.8756L307.02 18.2256H307.135C307.135 18.1513 307.135 18.0703 307.135 17.9893V16.8756C307.135 16.5988 307.243 16.5853 307.337 16.5853H307.384L307.378 16.5921Z" fill="#211E1F"/>
<path fill-rule="evenodd" clip-rule="evenodd" d="M308.805 17.8311C308.833 17.8923 308.863 17.9543 308.863 18.009C308.863 18.062 308.891 18.1109 308.937 18.1373C308.983 18.1638 309.04 18.1637 309.086 18.1372V18.225H308.762H308.397V18.1372H308.431C308.492 18.1372 308.573 18.1237 308.573 18.0765C308.564 18.0186 308.548 17.9619 308.525 17.9077L308.431 17.6377H307.904L307.83 17.8807C307.808 17.9403 307.79 18.0011 307.776 18.063C307.776 18.1372 307.87 18.1372 307.945 18.1372H307.985V18.225H307.695H307.438V18.1035C307.531 18.1045 307.614 18.044 307.641 17.955L308.019 16.8547C308.058 16.7558 308.089 16.6543 308.113 16.551C308.192 16.5266 308.266 16.4926 308.336 16.4497V16.5105L308.775 17.766C308.784 17.7874 308.794 17.8092 308.805 17.8311ZM308.1 16.8007L307.891 17.442H308.309L308.1 16.8007Z" fill="#211E1F"/>
<path d="M310.435 16.4229C310.435 16.4836 310.381 16.4836 310.314 16.4836H309.072C309.011 16.4836 308.964 16.4836 308.95 16.4229H308.869C308.876 16.4879 308.876 16.5535 308.869 16.6186C308.869 16.6929 308.869 16.7604 308.869 16.8279H308.964C308.997 16.6524 308.997 16.6186 309.173 16.6186H309.558V17.8876C309.558 18.0699 309.497 18.0699 309.369 18.0766H309.308V18.2251H309.713H310.104V18.1374H310.05C309.936 18.1374 309.861 18.1374 309.861 17.9416V16.6389H310.246C310.395 16.6389 310.401 16.7671 310.408 16.8616L310.496 16.8279C310.492 16.7627 310.492 16.6973 310.496 16.6321C310.496 16.5714 310.496 16.5039 310.496 16.4364H310.428L310.435 16.4229Z" fill="#211E1F"/>
<path d="M310.948 16.5111H310.59V16.6056H310.631C310.719 16.6056 310.8 16.6056 310.8 16.7338V17.9826C310.8 18.1041 310.719 18.1108 310.631 18.1108H310.59V18.2256H310.941H311.319V18.1378H311.272C311.184 18.1378 311.11 18.1378 311.11 18.0096V16.7203C311.11 16.5988 311.184 16.5921 311.272 16.5921H311.319V16.4976L310.948 16.5111Z" fill="#211E1F"/>
<path fill-rule="evenodd" clip-rule="evenodd" d="M311.639 16.7223C311.807 16.5548 312.035 16.4615 312.272 16.4633C312.508 16.4407 312.744 16.5183 312.921 16.6774C313.098 16.8364 313.2 17.0624 313.203 17.3004C313.213 17.5472 313.119 17.787 312.945 17.9623C312.771 18.1376 312.532 18.2328 312.285 18.2251C312.047 18.2383 311.815 18.1519 311.643 17.9868C311.472 17.8216 311.376 17.5925 311.38 17.3544C311.379 17.1175 311.472 16.8898 311.639 16.7223ZM312.845 17.3544C312.845 17.0034 312.656 16.5916 312.272 16.5916C311.86 16.5916 311.738 16.9561 311.738 17.2734C311.738 17.6986 311.86 18.0969 312.312 18.0969C312.764 18.0969 312.845 17.7054 312.845 17.3544Z" fill="#211E1F"/>
<path d="M315.188 16.5921V16.4976H314.897H314.56V16.5921H314.621C314.688 16.5921 314.816 16.5921 314.816 16.8081V17.6856L313.763 16.5043C313.682 16.5043 313.615 16.5043 313.547 16.5043H313.271V16.5988H313.311C313.365 16.5969 313.418 16.6176 313.456 16.656C313.495 16.6944 313.515 16.747 313.514 16.8013V17.8138C313.514 18.0028 313.466 18.1041 313.311 18.1041H313.271V18.2256H313.595H313.905V18.1378H313.858C313.676 18.1378 313.649 18.0771 313.642 17.8678V16.8756L314.85 18.2256H314.958C314.951 18.147 314.951 18.0679 314.958 17.9893V16.8756C314.958 16.5988 315.059 16.5853 315.161 16.5853H315.208L315.188 16.5921Z" fill="#211E1F"/>
<path fill-rule="evenodd" clip-rule="evenodd" d="M316.585 17.766C316.61 17.8484 316.639 17.9295 316.672 18.009C316.675 18.0524 316.697 18.0924 316.732 18.1174C316.768 18.1424 316.813 18.1497 316.855 18.1372V18.225H316.524H316.166V18.1372H316.2C316.254 18.1372 316.335 18.1237 316.335 18.0765C316.325 18.0187 316.309 17.9622 316.288 17.9077L316.2 17.6377H315.761L315.687 17.8807C315.662 17.9392 315.644 18.0003 315.633 18.063C315.633 18.1372 315.721 18.1372 315.802 18.1372V18.225H315.511H315.255V18.1035C315.345 18.1015 315.424 18.0416 315.451 17.955L315.835 16.8547C315.874 16.7558 315.906 16.6543 315.93 16.551C316.005 16.5253 316.078 16.4913 316.146 16.4497V16.5105L316.585 17.766ZM315.694 17.442H316.112L315.91 16.8007L315.694 17.442Z" fill="#211E1F"/>
<path d="M318.225 17.7598C318.211 17.8201 318.186 17.8772 318.151 17.9286C318.095 17.996 318.015 18.0394 317.928 18.0501H317.618C317.543 18.0501 317.483 18.0163 317.483 17.9218V16.7136C317.483 16.5921 317.543 16.5921 317.631 16.5921H317.705V16.4976H317.341H316.963V16.5921H317.003C317.091 16.5921 317.172 16.5921 317.172 16.7203V17.9488C317.172 18.0906 317.091 18.0973 317.003 18.0973H316.963V18.2256H317.597H318.225C318.225 18.0906 318.286 17.9556 318.313 17.8206H318.225V17.7598Z" fill="#211E1F"/>
<path fill-rule="evenodd" clip-rule="evenodd" d="M317.982 16.6974C317.98 16.5604 318.088 16.447 318.225 16.4433C318.293 16.4394 318.359 16.4643 318.408 16.5118C318.457 16.5592 318.483 16.625 318.481 16.693C318.481 16.8301 318.371 16.9415 318.234 16.9427C318.097 16.9439 317.984 16.8344 317.982 16.6974ZM318.022 16.6728C318.022 16.7846 318.113 16.8753 318.225 16.8753C318.279 16.8753 318.33 16.8539 318.368 16.816C318.406 16.778 318.427 16.7265 318.427 16.6728C318.427 16.5609 318.337 16.4703 318.225 16.4703C318.113 16.4703 318.022 16.5609 318.022 16.6728Z" fill="#211E1F"/>
<path fill-rule="evenodd" clip-rule="evenodd" d="M318.334 16.6253C318.334 16.6617 318.309 16.6931 318.273 16.6998V16.7539L318.327 16.8148H318.28C318.262 16.8148 318.247 16.7921 318.226 16.7595C318.215 16.7418 318.202 16.7212 318.185 16.6998V16.781H318.117V16.5915V16.5576H318.246C318.293 16.5576 318.334 16.5779 318.334 16.6253ZM318.198 16.5847V16.6998H318.205C318.253 16.6998 318.253 16.6727 318.253 16.6388C318.255 16.6239 318.25 16.6087 318.239 16.598C318.229 16.5873 318.213 16.5823 318.198 16.5847Z" fill="#211E1F"/>
<path d="M309.018 11.8737C311.388 11.8872 313.347 10.0292 313.459 7.66156C313.445 6.50206 312.968 5.39642 312.133 4.59118C311.299 3.78595 310.177 3.34808 309.018 3.37521H306.993C305.849 3.34903 304.744 3.79244 303.935 4.60224C303.127 5.41203 302.685 6.51758 302.713 7.66156C302.739 10.0034 304.651 11.8849 306.993 11.8737H309.018Z" fill="#0779BE"/>
<path fill-rule="evenodd" clip-rule="evenodd" d="M307.033 3.72607C304.886 3.72607 303.145 5.46683 303.145 7.61416C303.145 9.76149 304.886 11.5022 307.033 11.5022C309.18 11.5022 310.921 9.76149 310.921 7.61416C310.921 5.46683 309.18 3.72607 307.033 3.72607ZM304.569 7.61416C304.57 6.59444 305.198 5.68013 306.149 5.31236V9.91596C305.197 9.54977 304.568 8.63447 304.569 7.61416ZM309.496 7.61416C309.496 6.59244 308.865 5.67673 307.911 5.31236V9.91596C308.865 9.55159 309.496 8.63588 309.496 7.61416Z" fill="white"/>
<path d="M309.018 11.8737C311.388 11.8872 313.347 10.0292 313.459 7.66156C313.445 6.50206 312.968 5.39642 312.133 4.59118C311.299 3.78595 310.177 3.34808 309.018 3.37521H306.993C305.849 3.34903 304.744 3.79244 303.935 4.60224C303.127 5.41203 302.685 6.51758 302.713 7.66156C302.739 10.0034 304.651 11.8849 306.993 11.8737H309.018Z" fill="#0779BE"/>
<path fill-rule="evenodd" clip-rule="evenodd" d="M307.033 3.72607C304.886 3.72607 303.145 5.46683 303.145 7.61416C303.145 9.76149 304.886 11.5022 307.033 11.5022C309.18 11.5022 310.921 9.76149 310.921 7.61416C310.921 5.46683 309.18 3.72607 307.033 3.72607ZM304.569 7.61416C304.57 6.59444 305.198 5.68013 306.149 5.31236V9.91596C305.197 9.54977 304.568 8.63447 304.569 7.61416ZM309.496 7.61416C309.496 6.59244 308.865 5.67673 307.911 5.31236V9.91596C308.865 9.55159 309.496 8.63588 309.496 7.61416Z" fill="white"/>
</svg>
