<svg width="126" height="21" viewBox="0 0 126 21" fill="none" xmlns="http://www.w3.org/2000/svg">
<path d="M19.6875 10.5C19.6875 5.14844 15.3516 0.8125 10 0.8125C4.64844 0.8125 0.3125 5.14844 0.3125 10.5C0.3125 15.3438 3.82812 19.3672 8.47656 20.0703V13.3125H6.01562V10.5H8.47656V8.39062C8.47656 5.96875 9.92188 4.60156 12.1094 4.60156C13.2031 4.60156 14.2969 4.79688 14.2969 4.79688V7.17969H13.0859C11.875 7.17969 11.4844 7.92188 11.4844 8.70312V10.5H14.1797L13.75 13.3125H11.4844V20.0703C16.1328 19.3672 19.6875 15.3438 19.6875 10.5Z" fill="#3B5998"/>
<path d="M36.5625 6.00781C34.0625 6.00781 32.0703 8.03906 32.0703 10.5C32.0703 13 34.0625 14.9922 36.5625 14.9922C39.0234 14.9922 41.0547 13 41.0547 10.5C41.0547 8.03906 39.0234 6.00781 36.5625 6.00781ZM36.5625 13.4297C34.9609 13.4297 33.6328 12.1406 33.6328 10.5C33.6328 8.89844 34.9219 7.60938 36.5625 7.60938C38.1641 7.60938 39.4531 8.89844 39.4531 10.5C39.4531 12.1406 38.1641 13.4297 36.5625 13.4297ZM42.2656 5.85156C42.2656 5.26562 41.7969 4.79688 41.2109 4.79688C40.625 4.79688 40.1562 5.26562 40.1562 5.85156C40.1562 6.4375 40.625 6.90625 41.2109 6.90625C41.7969 6.90625 42.2656 6.4375 42.2656 5.85156ZM45.2344 6.90625C45.1562 5.5 44.8438 4.25 43.8281 3.23438C42.8125 2.21875 41.5625 1.90625 40.1562 1.82812C38.7109 1.75 34.375 1.75 32.9297 1.82812C31.5234 1.90625 30.3125 2.21875 29.2578 3.23438C28.2422 4.25 27.9297 5.5 27.8516 6.90625C27.7734 8.35156 27.7734 12.6875 27.8516 14.1328C27.9297 15.5391 28.2422 16.75 29.2578 17.8047C30.3125 18.8203 31.5234 19.1328 32.9297 19.2109C34.375 19.2891 38.7109 19.2891 40.1562 19.2109C41.5625 19.1328 42.8125 18.8203 43.8281 17.8047C44.8438 16.75 45.1562 15.5391 45.2344 14.1328C45.3125 12.6875 45.3125 8.35156 45.2344 6.90625ZM43.3594 15.6562C43.0859 16.4375 42.4609 17.0234 41.7188 17.3359C40.5469 17.8047 37.8125 17.6875 36.5625 17.6875C35.2734 17.6875 32.5391 17.8047 31.4062 17.3359C30.625 17.0234 30.0391 16.4375 29.7266 15.6562C29.2578 14.5234 29.375 11.7891 29.375 10.5C29.375 9.25 29.2578 6.51562 29.7266 5.34375C30.0391 4.60156 30.625 4.01562 31.4062 3.70312C32.5391 3.23438 35.2734 3.35156 36.5625 3.35156C37.8125 3.35156 40.5469 3.23438 41.7188 3.70312C42.4609 3.97656 43.0469 4.60156 43.3594 5.34375C43.8281 6.51562 43.7109 9.25 43.7109 10.5C43.7109 11.7891 43.8281 14.5234 43.3594 15.6562Z" fill="#F50156"/>
<path d="M71.0547 6.4375C71.8359 5.85156 72.5391 5.14844 73.0859 4.32812C72.3828 4.64062 71.5625 4.875 70.7422 4.95312C71.6016 4.44531 72.2266 3.66406 72.5391 2.6875C71.7578 3.15625 70.8594 3.50781 69.9609 3.70312C69.1797 2.88281 68.125 2.41406 66.9531 2.41406C64.6875 2.41406 62.8516 4.25 62.8516 6.51562C62.8516 6.82812 62.8906 7.14062 62.9688 7.45312C59.5703 7.25781 56.5234 5.61719 54.4922 3.15625C54.1406 3.74219 53.9453 4.44531 53.9453 5.22656C53.9453 6.63281 54.6484 7.88281 55.7812 8.625C55.1172 8.58594 54.4531 8.42969 53.9062 8.11719V8.15625C53.9062 10.1484 55.3125 11.7891 57.1875 12.1797C56.875 12.2578 56.4844 12.3359 56.1328 12.3359C55.8594 12.3359 55.625 12.2969 55.3516 12.2578C55.8594 13.8984 57.3828 15.0703 59.1797 15.1094C57.7734 16.2031 56.0156 16.8672 54.1016 16.8672C53.75 16.8672 53.4375 16.8281 53.125 16.7891C54.9219 17.9609 57.0703 18.625 59.4141 18.625C66.9531 18.625 71.0547 12.4141 71.0547 6.98438C71.0547 6.78906 71.0547 6.63281 71.0547 6.4375Z" fill="#55ACEE"/>
<path d="M97.1875 1.75H82.1484C81.4844 1.75 80.9375 2.33594 80.9375 3.03906V18C80.9375 18.7031 81.4844 19.25 82.1484 19.25H97.1875C97.8516 19.25 98.4375 18.7031 98.4375 18V3.03906C98.4375 2.33594 97.8516 1.75 97.1875 1.75ZM86.2109 16.75H83.6328V8.42969H86.2109V16.75ZM84.9219 7.25781C84.0625 7.25781 83.3984 6.59375 83.3984 5.77344C83.3984 4.95312 84.0625 4.25 84.9219 4.25C85.7422 4.25 86.4062 4.95312 86.4062 5.77344C86.4062 6.59375 85.7422 7.25781 84.9219 7.25781ZM95.9375 16.75H93.3203V12.6875C93.3203 11.75 93.3203 10.5 91.9922 10.5C90.625 10.5 90.4297 11.5547 90.4297 12.6484V16.75H87.8516V8.42969H90.3125V9.5625H90.3516C90.7031 8.89844 91.5625 8.19531 92.8125 8.19531C95.4297 8.19531 95.9375 9.95312 95.9375 12.1797V16.75Z" fill="#007BB5"/>
<path d="M125.625 10.5C125.625 5.14844 121.289 0.8125 115.938 0.8125C110.586 0.8125 106.25 5.14844 106.25 10.5C106.25 14.6406 108.789 18.1172 112.383 19.5234C112.305 18.7812 112.227 17.6094 112.422 16.75C112.617 16.0078 113.555 11.9453 113.555 11.9453C113.555 11.9453 113.281 11.3594 113.281 10.5C113.281 9.17188 114.062 8.15625 115.039 8.15625C115.859 8.15625 116.25 8.78125 116.25 9.52344C116.25 10.3438 115.703 11.5938 115.43 12.7656C115.234 13.7031 115.938 14.4844 116.875 14.4844C118.594 14.4844 119.922 12.6875 119.922 10.0703C119.922 7.72656 118.242 6.125 115.898 6.125C113.125 6.125 111.523 8.19531 111.523 10.3047C111.523 11.1641 111.836 12.0625 112.227 12.5312C112.305 12.6094 112.305 12.7266 112.305 12.8047C112.227 13.1172 112.031 13.7812 112.031 13.8984C111.992 14.0938 111.875 14.1328 111.68 14.0547C110.469 13.4688 109.727 11.7109 109.727 10.2656C109.727 7.21875 111.953 4.40625 116.133 4.40625C119.492 4.40625 122.109 6.82812 122.109 10.0312C122.109 13.3516 120 16.0469 117.07 16.0469C116.094 16.0469 115.156 15.5391 114.844 14.9141C114.844 14.9141 114.375 16.7891 114.258 17.2188C114.023 18.0781 113.438 19.1328 113.047 19.7578C113.945 20.0703 114.922 20.1875 115.938 20.1875C121.289 20.1875 125.625 15.8516 125.625 10.5Z" fill="#EA1D25"/>
</svg>
