<svg width="260" height="34" viewBox="0 0 260 34" fill="none" xmlns="http://www.w3.org/2000/svg">
<path d="M10.5513 15.4478C9.19297 15.6956 8.29277 16.9976 8.5406 18.3559C8.78844 19.7142 10.0905 20.6144 11.4487 20.3666L10.5513 15.4478ZM11.4487 20.3666C79.2917 7.98799 128.52 -2.05345 259.186 14.4802L259.814 9.51978C128.48 -7.09847 78.7083 3.0119 10.5513 15.4478L11.4487 20.3666ZM259.814 9.51978C228.218 5.52186 176.967 2.87411 126.957 4.9274C101.947 5.95424 77.1974 8.15865 55.3416 11.9727C33.5295 15.7791 14.4103 21.2196 0.782733 28.8163L3.21727 33.1836C16.116 25.9932 34.5856 20.6704 56.2012 16.8983C77.773 13.1337 102.29 10.9444 127.162 9.92319C176.915 7.88045 227.887 10.5198 259.186 14.4802L259.814 9.51978Z" fill="#F65D4E"/>
</svg>
